<svg width="613" height="408" viewBox="0 0 613 408" fill="none" xmlns="http://www.w3.org/2000/svg">
<rect width="613" height="408" fill="white"/>
<ellipse cx="317.89" cy="201" rx="191.89" ry="189" fill="url(#paint0_linear)"/>
<path d="M157.758 324.157C167.62 335.565 157.758 348.271 157.758 348.271C157.758 348.271 142.278 346.542 132.416 335.135C122.555 323.727 122.045 306.961 122.045 306.961C122.045 306.961 147.896 312.75 157.758 324.157Z" fill="#6C63FF"/>
<path d="M187.958 337.268C177.376 347.899 161.822 348.448 161.822 348.448C161.822 348.448 163.425 331.762 174.008 321.132C184.59 310.501 200.145 309.951 200.145 309.951C200.145 309.951 198.541 326.638 187.958 337.268Z" fill="#6C63FF"/>
<path d="M181.467 372.47L142.544 372.436C141.797 372.435 141.066 372.208 140.433 371.781C139.8 371.353 139.292 370.743 138.966 370.019L130.506 351.233C130.211 350.579 130.076 349.854 130.112 349.128C130.149 348.401 130.356 347.697 130.714 347.08C131.073 346.464 131.571 345.956 132.161 345.604C132.752 345.252 133.416 345.067 134.091 345.068L189.963 345.117C190.638 345.118 191.302 345.304 191.892 345.657C192.482 346.01 192.979 346.519 193.337 347.136C193.694 347.753 193.9 348.458 193.936 349.185C193.971 349.911 193.834 350.635 193.538 351.289L185.049 370.06C184.722 370.783 184.213 371.393 183.579 371.819C182.946 372.245 182.214 372.471 181.467 372.47Z" fill="#3F3D56"/>
<path d="M326.368 143.187C344.267 143.187 358.778 127.546 358.778 108.252C358.778 88.9575 344.267 73.3164 326.368 73.3164C308.469 73.3164 293.959 88.9575 293.959 108.252C293.959 127.546 308.469 143.187 326.368 143.187Z" fill="#FFB8B8"/>
<path d="M302.179 125.72C302.179 125.72 308.285 175.338 298.891 180.907C289.497 186.477 354.785 186.983 354.785 186.983C354.785 186.983 340.224 143.947 346.8 130.783L302.179 125.72Z" fill="#FFB8B8"/>
<path d="M402.459 187.234L397.029 213.886L385.548 270.273L385.204 273.362L381.242 309.111L378.607 332.86L376.839 348.814C366.094 354.766 358.307 358.876 358.307 358.876C358.307 358.876 357.637 355.256 356.557 350.624C349.016 353.061 335.063 357.104 323.238 357.911C327.544 363.085 329.523 367.945 326.839 371.532C318.738 382.345 285.296 359.693 273.599 351.246C273.327 353.269 273.224 355.313 273.291 357.356L264.34 349.935L265.226 332.86L266.72 303.971L268.597 267.741C268.005 266.19 267.509 264.598 267.112 262.976C264.371 252.467 261.043 231.483 258.491 213.886C256.438 199.724 254.895 187.757 254.569 185.21C254.525 184.878 254.503 184.707 254.503 184.707L304.053 161.105C307.575 169.908 324.018 172.554 324.018 172.554C337.641 171.542 348.32 163.799 348.32 163.799L402.459 187.234Z" fill="#D0CDE1"/>
<path d="M362.066 348.752C362.066 348.752 359.968 349.526 356.557 350.624C349.016 353.061 335.063 357.104 323.238 357.911C313.058 358.615 304.455 356.923 302.881 349.764C302.207 346.685 303.163 344.153 305.248 342.072C311.471 335.853 327.725 333.625 340.616 332.86C344.256 332.647 347.624 332.547 350.427 332.509C355.186 332.442 358.307 332.547 358.307 332.547L358.382 332.86L362.066 348.752Z" fill="#FFB8B8"/>
<path d="M299.407 75.2061L293.347 72.591C293.347 72.591 306.017 57.5544 323.646 58.862L318.688 52.978C318.688 52.978 330.807 47.7479 341.825 61.477C347.617 68.694 354.318 77.1773 358.495 86.7336H364.985L362.276 93.1623L371.756 99.591L362.026 98.4363C362.606 101.957 362.695 105.551 362.29 109.099C361.873 112.649 360.192 115.885 357.603 118.125C357.603 118.125 350.088 101.357 350.088 98.7416V105.279C350.088 105.279 344.028 99.3955 344.028 95.4729L340.723 100.049L339.07 92.8578L318.688 100.049L321.993 94.1654L309.323 96.1267L314.281 88.9352C314.281 88.9352 299.958 97.4342 299.407 104.626C298.856 111.817 294.663 118.631 294.663 118.631C294.663 118.631 283.431 85.0126 299.407 75.2061Z" fill="#2F2E41"/>
<path d="M437.686 309.762C434.385 313.62 426.205 319.43 416.289 325.72C412.6 328.057 408.673 330.466 404.667 332.86C395.108 338.576 385.099 344.239 376.84 348.814C366.095 354.766 358.307 358.876 358.307 358.876C358.307 358.876 357.638 355.256 356.558 350.624C355.112 344.424 352.935 336.409 350.665 332.86C350.586 332.737 350.507 332.623 350.427 332.509C349.766 331.573 349.101 331.027 348.444 331.027L381.243 309.111L395.416 299.638L385.205 273.361L372.397 240.4L380.128 213.886L387.898 187.234H402.459C402.459 187.234 407.28 198.579 413.446 214.399C414.367 216.765 415.319 219.231 416.289 221.777C428.973 255.033 444.786 301.472 437.686 309.762Z" fill="#D0CDE1"/>
<path d="M326.839 371.532C318.739 382.345 285.296 359.693 273.599 351.246C271.052 349.407 269.536 348.244 269.536 348.244L280.237 332.86L283.626 327.991C283.626 327.991 286.658 329.725 291.14 332.547C291.303 332.651 291.467 332.756 291.634 332.86C295.499 335.307 300.352 338.504 305.248 342.072C312.004 346.999 318.836 352.619 323.239 357.911C327.544 363.085 329.523 367.945 326.839 371.532Z" fill="#FFB8B8"/>
<path d="M291.14 332.547C289.944 332.542 288.75 332.647 287.57 332.86C277.438 334.737 274.45 344.623 273.599 351.246C273.327 353.268 273.224 355.313 273.291 357.356L264.34 349.935L261.078 347.232C253.229 344.281 246.235 339.041 240.17 332.861C234.909 327.404 230.19 321.371 226.089 314.86C222.004 308.442 218.363 301.71 215.194 294.716C214.31 292.765 213.835 290.628 213.802 288.456C213.77 286.285 214.18 284.132 215.005 282.15L226.089 255.522L242.29 216.604C242.409 215.677 242.54 214.772 242.682 213.886C245.895 194.028 254.503 185.21 254.503 185.21H261.078L265.477 213.886L270.942 249.512L267.112 262.976L258.262 294.07L266.72 303.971L291.14 332.547Z" fill="#D0CDE1"/>
<path d="M298.583 249.541L304.204 256.61C306.293 256.181 308.474 255.677 310.72 255.11L309.105 249.541L313.053 254.506C336.851 248.196 366.349 235.929 366.349 235.929C366.349 235.929 334.503 238.447 310.725 232.847C300.205 230.369 289.381 235.991 285.064 246.625C282.554 252.806 282.948 258.162 291.848 258.162C294.855 258.106 297.854 257.802 300.818 257.252L298.583 249.541Z" fill="#6C63FF"/>
<path d="M426.735 365.736V368.62C426.736 369.411 426.6 370.196 426.333 370.933C426.215 371.262 426.072 371.58 425.906 371.883C425.381 372.834 424.635 373.621 423.743 374.167C422.851 374.713 421.842 375 420.816 375H224.009C222.983 375 221.974 374.713 221.082 374.167C220.189 373.621 219.444 372.834 218.919 371.883C218.752 371.58 218.609 371.262 218.491 370.933C218.225 370.196 218.089 369.411 218.09 368.62V365.736C218.09 364.898 218.243 364.068 218.54 363.294C218.838 362.52 219.274 361.816 219.823 361.224C220.373 360.631 221.025 360.161 221.744 359.841C222.462 359.52 223.232 359.355 224.009 359.356H235.353V358.011C235.353 357.976 235.36 357.942 235.372 357.909C235.384 357.877 235.403 357.848 235.425 357.823C235.448 357.798 235.476 357.779 235.506 357.765C235.536 357.752 235.568 357.745 235.6 357.745H241.519C241.551 357.745 241.584 357.752 241.614 357.765C241.644 357.779 241.671 357.798 241.694 357.823C241.717 357.848 241.735 357.877 241.747 357.909C241.76 357.942 241.766 357.976 241.766 358.011V359.356H245.464V358.011C245.463 357.976 245.47 357.942 245.482 357.909C245.495 357.877 245.513 357.848 245.536 357.823C245.559 357.798 245.586 357.779 245.616 357.765C245.646 357.752 245.678 357.745 245.71 357.745H251.629C251.662 357.745 251.694 357.752 251.724 357.765C251.754 357.779 251.781 357.798 251.804 357.823C251.827 357.848 251.845 357.877 251.857 357.909C251.87 357.942 251.876 357.976 251.876 358.011V359.356H255.578V358.011C255.578 357.976 255.585 357.942 255.597 357.909C255.609 357.877 255.627 357.848 255.65 357.823C255.673 357.798 255.701 357.779 255.731 357.765C255.761 357.752 255.793 357.745 255.825 357.745H261.744C261.776 357.745 261.809 357.752 261.838 357.765C261.868 357.779 261.896 357.798 261.919 357.823C261.942 357.848 261.96 357.877 261.972 357.909C261.985 357.942 261.991 357.976 261.991 358.011V359.356H265.689V358.011C265.688 357.976 265.695 357.942 265.707 357.909C265.72 357.877 265.738 357.848 265.761 357.823C265.784 357.798 265.811 357.779 265.841 357.765C265.871 357.752 265.903 357.745 265.935 357.745H271.854C271.887 357.745 271.919 357.752 271.949 357.765C271.979 357.779 272.006 357.798 272.029 357.823C272.052 357.848 272.07 357.877 272.082 357.909C272.095 357.942 272.101 357.976 272.101 358.011V359.356H275.799V358.011C275.799 357.976 275.805 357.942 275.817 357.909C275.83 357.877 275.848 357.848 275.871 357.823C275.894 357.798 275.921 357.779 275.951 357.765C275.981 357.752 276.013 357.745 276.046 357.745H281.965C281.997 357.745 282.029 357.752 282.059 357.765C282.089 357.779 282.116 357.798 282.139 357.823C282.162 357.848 282.18 357.877 282.193 357.909C282.205 357.942 282.211 357.976 282.211 358.011V359.356H285.914V358.011C285.913 357.976 285.92 357.942 285.932 357.909C285.945 357.877 285.963 357.848 285.986 357.823C286.009 357.798 286.036 357.779 286.066 357.765C286.096 357.752 286.128 357.745 286.16 357.745H292.079C292.112 357.745 292.144 357.752 292.174 357.765C292.204 357.779 292.231 357.798 292.254 357.823C292.277 357.848 292.295 357.877 292.307 357.909C292.32 357.942 292.326 357.976 292.326 358.011V359.356H296.024V358.011C296.024 357.976 296.03 357.942 296.042 357.909C296.055 357.877 296.073 357.848 296.096 357.823C296.119 357.798 296.146 357.779 296.176 357.765C296.206 357.752 296.238 357.745 296.271 357.745H342.635C342.667 357.745 342.7 357.752 342.73 357.765C342.76 357.779 342.787 357.798 342.81 357.823C342.833 357.848 342.851 357.877 342.863 357.909C342.876 357.942 342.882 357.976 342.882 358.011V359.356H346.584V358.011C346.584 357.976 346.59 357.942 346.603 357.909C346.615 357.877 346.633 357.848 346.656 357.823C346.679 357.798 346.706 357.779 346.736 357.765C346.766 357.752 346.798 357.745 346.831 357.745H352.75C352.815 357.746 352.877 357.774 352.924 357.824C352.97 357.874 352.996 357.941 352.997 358.011V359.356H356.694V358.011C356.694 357.976 356.701 357.942 356.713 357.909C356.725 357.877 356.743 357.848 356.766 357.823C356.789 357.798 356.817 357.779 356.847 357.765C356.876 357.752 356.909 357.745 356.941 357.745H362.86C362.892 357.745 362.925 357.752 362.955 357.765C362.984 357.779 363.012 357.798 363.035 357.823C363.058 357.848 363.076 357.877 363.088 357.909C363.101 357.942 363.107 357.976 363.107 358.011V359.356H366.804V358.011C366.804 357.976 366.811 357.942 366.823 357.909C366.836 357.877 366.854 357.848 366.877 357.823C366.9 357.798 366.927 357.779 366.957 357.765C366.987 357.752 367.019 357.745 367.051 357.745H372.97C373.003 357.745 373.035 357.752 373.065 357.765C373.095 357.779 373.122 357.798 373.145 357.823C373.168 357.848 373.186 357.877 373.198 357.909C373.211 357.942 373.217 357.976 373.217 358.011V359.356H376.919V358.011C376.919 357.976 376.925 357.942 376.938 357.909C376.95 357.877 376.968 357.848 376.991 357.823C377.014 357.798 377.041 357.779 377.071 357.765C377.101 357.752 377.134 357.745 377.166 357.745H383.085C383.15 357.746 383.212 357.774 383.257 357.824C383.302 357.874 383.328 357.941 383.327 358.011V359.356H387.029V358.011C387.029 357.976 387.036 357.942 387.048 357.909C387.061 357.877 387.079 357.848 387.102 357.823C387.125 357.798 387.152 357.779 387.182 357.765C387.212 357.752 387.244 357.745 387.276 357.745H393.195C393.228 357.745 393.26 357.752 393.29 357.765C393.32 357.779 393.347 357.798 393.37 357.823C393.393 357.848 393.411 357.877 393.423 357.909C393.436 357.942 393.442 357.976 393.442 358.011V359.356H397.14V358.011C397.14 357.976 397.146 357.942 397.158 357.909C397.171 357.877 397.189 357.848 397.212 357.823C397.235 357.798 397.262 357.779 397.292 357.765C397.322 357.752 397.354 357.745 397.387 357.745H403.306C403.338 357.745 403.37 357.752 403.4 357.765C403.43 357.779 403.457 357.798 403.48 357.823C403.503 357.848 403.521 357.877 403.534 357.909C403.546 357.942 403.552 357.976 403.552 358.011V359.356H420.816C421.593 359.355 422.363 359.52 423.081 359.841C423.799 360.161 424.452 360.631 425.001 361.224C425.551 361.816 425.987 362.52 426.284 363.294C426.582 364.068 426.735 364.898 426.735 365.736Z" fill="#3F3D56"/>
<path d="M410.887 244.292H337.531V242.662H304.269V244.292H230.611C229.96 244.292 229.315 244.43 228.713 244.699C228.11 244.968 227.564 245.362 227.103 245.858C226.642 246.355 226.276 246.945 226.027 247.593C225.778 248.242 225.649 248.938 225.649 249.64V357.916C225.649 359.335 226.172 360.696 227.103 361.699C228.033 362.702 229.295 363.265 230.611 363.265H410.887C412.203 363.265 413.465 362.702 414.396 361.699C415.326 360.696 415.849 359.335 415.849 357.916V249.64C415.849 248.938 415.721 248.242 415.471 247.593C415.222 246.945 414.856 246.355 414.396 245.858C413.935 245.362 413.388 244.968 412.786 244.699C412.184 244.43 411.539 244.292 410.887 244.292Z" fill="#3F3D56"/>
<path d="M320.894 293.97C326.979 293.97 331.912 288.653 331.912 282.093C331.912 275.534 326.979 270.216 320.894 270.216C314.809 270.216 309.875 275.534 309.875 282.093C309.875 288.653 314.809 293.97 320.894 293.97Z" stroke="#D0CDE1" stroke-width="1.49537" stroke-miterlimit="10"/>
<path d="M317.368 298.246C323.453 298.246 328.387 292.929 328.387 286.369C328.387 279.81 323.453 274.492 317.368 274.492C311.282 274.492 306.349 279.81 306.349 286.369C306.349 292.929 311.282 298.246 317.368 298.246Z" fill="#D0CDE1"/>
<path d="M460.014 375H116V372.757H460.014V375Z" fill="#3F3D56"/>
<defs>
<linearGradient id="paint0_linear" x1="272.807" y1="165.743" x2="330.606" y2="317.174" gradientUnits="userSpaceOnUse">
<stop stop-color="#E7816B" stop-opacity="0.92"/>
<stop offset="0.244792" stop-color="#ED6465" stop-opacity="0.71902"/>
<stop offset="0.932292" stop-color="#F5395B" stop-opacity="0.42"/>
</linearGradient>
</defs>
</svg>
