<svg width="613" height="408" viewBox="0 0 613 408" fill="none" xmlns="http://www.w3.org/2000/svg">
<rect width="613" height="408" fill="white"/>
<ellipse cx="317.89" cy="201" rx="191.89" ry="189" fill="url(#paint0_linear)"/>
<path d="M469.096 180.262H352.642V331.288H469.096V180.262Z" fill="#E6E6E6"/>
<path d="M170.882 186.379H164.817V329.52H170.882V186.379Z" fill="#E6E6E6"/>
<path d="M472.365 168.35H140V180.262H472.365V168.35Z" fill="#E6E6E6"/>
<path d="M173.915 180.314H161.784V192.444H173.915V180.314Z" fill="#E6E6E6"/>
<path d="M419.945 187.41L419.262 190.14H402.28L401.256 187.41H358.003V215.311H463.539V187.41H419.945Z" fill="#3F3D56"/>
<path d="M419.945 222.553L419.262 225.282H402.28L401.256 222.553H358.003V250.453H463.539V222.553H419.945Z" fill="#3F3D56"/>
<path d="M421.136 258.886L420.454 261.616H403.471L402.448 258.886H359.194V286.786H464.73V258.886H421.136Z" fill="#3F3D56"/>
<path d="M421.136 294.029L420.454 296.758H403.471L402.448 294.029H359.194V321.929H464.73V294.029H421.136Z" fill="#3F3D56"/>
<path d="M334.645 166.363H298.86L300.073 150.594H333.432L334.645 166.363Z" fill="#E6E6E6"/>
<path d="M337.071 164.544H297.04V168.183H337.071V164.544Z" fill="#E6E6E6"/>
<path d="M385.29 49H248.518C247.553 49 246.627 49.3834 245.944 50.0659C245.262 50.7484 244.879 51.674 244.879 52.6392V136.037H388.929V52.6392C388.929 51.674 388.546 50.7484 387.863 50.0659C387.181 49.3834 386.255 49 385.29 49Z" fill="#3F3D56"/>
<path d="M244.879 136.037V149.684C244.879 150.649 245.262 151.575 245.944 152.257C246.627 152.94 247.553 153.323 248.518 153.323H385.29C386.255 153.323 387.181 152.94 387.863 152.257C388.546 151.575 388.929 150.649 388.929 149.684V136.037H244.879Z" fill="#E6E6E6"/>
<path d="M381.954 56.5816H252.157V129.365H381.954V56.5816Z" fill="white"/>
<path d="M317.056 148.168C319.065 148.168 320.695 146.538 320.695 144.528C320.695 142.519 319.065 140.889 317.056 140.889C315.046 140.889 313.416 142.519 313.416 144.528C313.416 146.538 315.046 148.168 317.056 148.168Z" fill="#3F3D56"/>
<path d="M329.246 77.1266H294.248V79.1356H329.246V77.1266Z" fill="#3F3D56"/>
<path d="M348.292 84.4548H294.248V86.4638H348.292V84.4548Z" fill="#6C63FF"/>
<path d="M338.293 91.359H294.248V93.368H338.293V91.359Z" fill="#6C63FF"/>
<path d="M319.961 98.2372H294.248V100.246H319.961V98.2372Z" fill="#3F3D56"/>
<path d="M333.055 105.115H294.248V107.124H333.055V105.115Z" fill="#3F3D56"/>
<path d="M282.583 76.4124H278.297V80.6977H282.583V76.4124Z" fill="#3F3D56"/>
<path d="M282.583 83.3166H278.297V87.602H282.583V83.3166Z" fill="#6C63FF"/>
<path d="M282.583 90.2208H278.297V94.5062H282.583V90.2208Z" fill="#6C63FF"/>
<path d="M282.583 97.125H278.297V101.41H282.583V97.125Z" fill="#3F3D56"/>
<path d="M282.583 104.029H278.297V108.315H282.583V104.029Z" fill="#3F3D56"/>
<path d="M375.941 73.3233H357.575C356.322 66.078 356.322 58.6714 357.575 51.4261H375.941C373.872 58.5786 373.872 66.1709 375.941 73.3233Z" fill="#6C63FF"/>
<path d="M242.309 117.211L234.753 115.369C231.87 115.373 229.022 114.735 226.416 113.503C223.809 112.271 221.509 110.475 219.682 108.244C217.855 106.014 216.546 103.405 215.851 100.607C215.156 97.8092 215.092 94.8915 215.663 92.0655V92.0655C215.654 85.3225 218.325 78.8523 223.087 74.0782C227.849 69.3042 234.312 66.6175 241.055 66.609H241.055C247.798 66.6005 254.269 69.271 259.043 74.0331C263.817 78.7951 266.503 85.2586 266.512 92.0016V92.0016C270.796 106.909 257.379 120.884 242.309 117.211Z" fill="#2F2E41"/>
<path d="M250.562 119.869C260.879 119.869 269.243 111.505 269.243 101.188C269.243 90.8702 260.879 82.5063 250.562 82.5063C240.244 82.5063 231.881 90.8702 231.881 101.188C231.881 111.505 240.244 119.869 250.562 119.869Z" fill="#FFB8B8"/>
<path d="M238.378 110.934C238.378 110.934 232.693 130.428 229.444 132.052C226.195 133.677 255.435 136.114 255.435 136.114C255.435 136.114 254.623 117.432 256.248 115.808C257.872 114.183 238.378 110.934 238.378 110.934Z" fill="#FFB8B8"/>
<path d="M267.619 231.145C267.619 231.145 304.169 227.896 309.043 240.079C313.916 252.263 305.794 324.552 305.794 324.552H290.361V265.259C290.361 265.259 224.56 246.555 224.56 240.057C224.56 233.559 267.619 231.145 267.619 231.145Z" fill="#2F2E41"/>
<path d="M303.357 321.303L311.479 324.552C311.479 324.552 321.226 323.739 317.165 331.05C316.003 333.172 314.376 335.004 312.408 336.41C310.439 337.817 308.178 338.761 305.794 339.172C305.794 339.172 290.361 344.858 289.549 339.172C288.737 333.486 293.61 322.115 293.61 322.115L303.357 321.303Z" fill="#2F2E41"/>
<path d="M247.313 231.145C247.313 231.145 283.863 227.896 288.737 240.079C293.61 252.263 285.488 324.552 285.488 324.552H270.055V265.259C270.055 265.259 223.347 254.44 223.347 247.942C223.347 244.889 220.164 229.375 225.773 226.107C232.103 222.418 247.313 231.145 247.313 231.145Z" fill="#2F2E41"/>
<path d="M283.051 321.303L291.174 324.552C291.174 324.552 300.92 323.739 296.859 331.05C295.697 333.172 294.071 335.004 292.102 336.41C290.133 337.817 287.872 338.761 285.488 339.172C285.488 339.172 270.055 344.858 269.243 339.172C268.431 333.486 273.304 322.115 273.304 322.115L283.051 321.303Z" fill="#2F2E41"/>
<path d="M230.256 129.616L254.665 132.269C258.433 132.678 261.974 134.268 264.784 136.81C267.594 139.352 269.529 142.718 270.312 146.425L279.802 191.345C279.802 191.345 283.051 236.018 276.553 238.455C270.055 240.892 261.121 228.708 248.937 230.333C236.754 231.957 220.915 235.612 220.915 235.612C220.915 235.612 218.4 155.65 218.073 149.109C217.418 136.035 230.256 129.616 230.256 129.616Z" fill="#575A89"/>
<path d="M288.076 233.466L298.096 239.367C298.096 239.367 316.074 236.788 315.513 243.107C314.952 249.425 295.328 248.205 295.328 248.205L283.251 240.763L288.076 233.466Z" fill="#FFB8B8"/>
<path d="M214.301 85.9937C220.966 85.9937 226.369 80.591 226.369 73.9263C226.369 67.2617 220.966 61.8589 214.301 61.8589C207.637 61.8589 202.234 67.2617 202.234 73.9263C202.234 80.591 207.637 85.9937 214.301 85.9937Z" fill="#2F2E41"/>
<path d="M225.436 67.4392C225.434 65.6542 225.037 63.8917 224.272 62.279C223.507 60.6662 222.393 59.2433 221.012 58.1131C219.63 56.9828 218.015 56.1732 216.282 55.7428C214.55 55.3124 212.744 55.2719 210.994 55.6242C212.538 54.8946 214.219 54.5011 215.927 54.4699C217.634 54.4387 219.329 54.7704 220.898 55.4431C222.468 56.1157 223.877 57.1141 225.032 58.372C226.187 59.6299 227.062 61.1188 227.598 62.74C228.135 64.3613 228.321 66.078 228.144 67.7766C227.968 69.4752 227.432 71.1169 226.574 72.5932C225.715 74.0695 224.553 75.3466 223.164 76.3401C221.775 77.3336 220.191 78.0209 218.517 78.3564C220.587 77.381 222.337 75.8364 223.563 73.9032C224.788 71.97 225.438 69.728 225.436 67.4392V67.4392Z" fill="#2F2E41"/>
<path d="M235.788 74.2831L252.057 71.2876L264.568 79.1291C267.644 81.0569 270.103 83.8265 271.652 87.1093C273.202 90.3921 273.777 94.0505 273.311 97.6505L260.78 94.4744L257.974 87.4387L254.632 92.9162L237.16 115.402L227.35 109.155L218.604 95.4494L235.788 74.2831Z" fill="#2F2E41"/>
<path d="M249.185 136.525L257.308 132.464C257.308 132.464 274.365 134.901 277.614 146.272C280.863 157.643 295.483 236.43 295.483 236.43L281.675 242.928L262.181 195.006L249.185 136.525Z" fill="#575A89"/>
<path opacity="0.2" d="M256.1 168.487L264.229 200.04L278.645 235.478L278.145 236.705L260.952 200.632L256.1 168.487Z" fill="black"/>
<path d="M195.444 342.501L192.577 341.514L220.349 259.024L224.364 260.407L195.444 342.501Z" fill="#3F3D56"/>
<path d="M301.591 342.501L304.458 341.514L276.686 259.024L272.672 260.407L301.591 342.501Z" fill="#3F3D56"/>
<path d="M242.908 359.538L245.941 359.548L246.883 263.12L242.637 263.105L242.908 359.538Z" fill="#3F3D56"/>
<path d="M188.425 210.554L196.744 244.175C197.909 248.883 200.334 253.185 203.759 256.619C207.185 260.053 211.481 262.489 216.187 263.665H216.187C239.386 269.465 263.675 269.308 286.797 263.21L299.217 259.935C306.434 258.031 311.86 251.833 312.374 244.388C312.582 241.756 312.105 239.114 310.99 236.721C310.942 236.618 310.893 236.516 310.844 236.414C309.224 233.087 306.726 230.266 303.618 228.257C300.511 226.248 296.913 225.127 293.214 225.015L280.057 224.59L232.142 203.362C232.142 203.362 215.662 194.991 202.114 194.054C193.168 193.435 186.271 201.849 188.425 210.554Z" fill="#6C63FF"/>
<defs>
<linearGradient id="paint0_linear" x1="272.807" y1="165.743" x2="330.606" y2="317.174" gradientUnits="userSpaceOnUse">
<stop stop-color="#E7816B" stop-opacity="0.92"/>
<stop offset="0.244792" stop-color="#ED6465" stop-opacity="0.71902"/>
<stop offset="0.932292" stop-color="#F5395B" stop-opacity="0.42"/>
</linearGradient>
</defs>
</svg>
