<svg width="613" height="408" viewBox="0 0 613 408" fill="none" xmlns="http://www.w3.org/2000/svg">
<rect width="613" height="408" fill="white"/>
<ellipse cx="317.89" cy="201" rx="191.89" ry="189" fill="url(#paint0_linear)"/>
<g clip-path="url(#clip0)">
<path d="M383.293 54.8341V321.479C383.29 324.655 382.027 327.701 379.78 329.946C377.533 332.191 374.487 333.453 371.31 333.454H263.061C261.487 333.457 259.928 333.149 258.473 332.548C257.019 331.947 255.697 331.066 254.584 329.953C253.471 328.841 252.588 327.52 251.986 326.066C251.385 324.611 251.076 323.053 251.078 321.479V54.8341C251.077 53.2604 251.387 51.7022 251.989 50.2483C252.592 48.7944 253.474 47.4733 254.587 46.3606C255.7 45.2478 257.021 44.3652 258.475 43.763C259.929 43.1609 261.487 42.851 263.061 42.8511H279.26V44.9285C279.26 47.5452 280.299 50.0549 282.149 51.9056C283.998 53.7562 286.508 54.7963 289.124 54.7971H344.181C346.287 54.8016 348.339 54.1264 350.031 52.8719C350.373 52.6231 350.697 52.351 351.002 52.0574C351.965 51.1372 352.732 50.0308 353.255 48.8054C353.779 47.58 354.047 46.261 354.046 44.9285V42.8511H371.31C372.884 42.8507 374.443 43.1603 375.897 43.7623C377.351 44.3643 378.672 45.247 379.785 46.3598C380.898 47.4726 381.78 48.7938 382.382 50.2479C382.984 51.7019 383.294 53.2604 383.293 54.8341V54.8341Z" fill="#F2F2F2"/>
<path d="M320.246 232.977C333.195 232.977 343.693 222.479 343.693 209.529C343.693 196.579 333.195 186.081 320.246 186.081C307.296 186.081 296.798 196.579 296.798 209.529C296.798 222.479 307.296 232.977 320.246 232.977Z" fill="#6C63FF"/>
<path d="M379.181 349.217H253.892C251.071 349.226 248.305 348.429 245.92 346.922C244.008 345.731 242.428 344.077 241.325 342.113C240.222 340.149 239.633 337.938 239.612 335.686V43.5404C239.612 36.0742 246.018 30 253.892 30H283.337V32.6873C283.337 38.4225 288.274 43.0885 294.342 43.0885H335.852C338.188 43.1014 340.47 42.3906 342.386 41.0538C343.744 40.1163 344.858 38.8679 345.636 37.4126C346.413 35.9573 346.832 34.3372 346.857 32.6873V30H379.181C387.055 30 393.461 36.0742 393.461 43.5404V335.686C393.45 337.67 392.992 339.627 392.121 341.41C391.251 343.194 389.99 344.759 388.433 345.989C385.808 348.09 382.543 349.23 379.181 349.217V349.217ZM253.892 30.8227C246.471 30.8227 240.434 36.528 240.434 43.5404V335.686C240.456 337.8 241.011 339.874 242.047 341.717C243.083 343.56 244.568 345.112 246.363 346.228C248.616 347.652 251.227 348.403 253.892 348.394H379.181C382.355 348.407 385.437 347.332 387.915 345.349C389.377 344.196 390.561 342.729 391.378 341.056C392.196 339.383 392.626 337.548 392.638 335.686V43.5404C392.638 36.528 386.601 30.8227 379.181 30.8227H347.68V32.6873C347.655 34.4702 347.204 36.2212 346.364 37.7942C345.525 39.3672 344.321 40.7167 342.854 41.7299C340.801 43.1627 338.355 43.9247 335.852 43.9112H294.342C287.82 43.9112 282.514 38.8762 282.514 32.6873V30.8227H253.892Z" fill="#3F3D56"/>
<path d="M356.015 248.757H283.666V170.861H356.015V248.757ZM284.594 247.829H355.088V171.788H284.594V247.829Z" fill="#3F3D56"/>
<path d="M340.242 103.798H292.743V104.725H340.242V103.798Z" fill="#3F3D56"/>
<path d="M340.242 116.424H292.743V117.351H340.242V116.424Z" fill="#3F3D56"/>
<path d="M340.242 129.05H292.743V129.977H340.242V129.05Z" fill="#3F3D56"/>
<path d="M155.438 348.504L154.997 348.339C154.9 348.302 145.244 344.603 140.721 336.214C136.197 327.826 138.412 317.726 138.435 317.625L138.539 317.165L138.981 317.33C139.078 317.367 148.733 321.066 153.257 329.455C157.78 337.843 155.565 347.943 155.542 348.044L155.438 348.504ZM141.445 335.824C145.269 342.916 152.899 346.552 154.833 347.382C155.2 345.31 156.353 336.931 152.532 329.845C148.712 322.76 141.079 319.119 139.145 318.287C138.777 320.36 137.624 328.739 141.445 335.824Z" fill="#3F3D56"/>
<path d="M144.177 333.272C152.306 338.162 155.437 347.876 155.437 347.876C155.437 347.876 145.388 349.661 137.259 344.771C129.131 339.88 126 330.166 126 330.166C126 330.166 136.049 328.381 144.177 333.272Z" fill="#6C63FF"/>
<path d="M417.142 347.67L417.895 360.1L422.038 364.62L430.702 358.216L425.052 345.41L417.142 347.67Z" fill="#A0616A"/>
<path d="M427.312 359.346C427.312 359.346 427.479 356.836 427.772 352.064C427.772 352.064 440.495 349.553 439.741 358.216C438.988 366.88 432.585 369.893 432.585 369.893C432.585 369.893 429.572 369.516 429.948 372.529C430.325 375.543 419.025 381.946 413.752 375.919L416.994 356.898C416.994 356.898 420.532 359.346 421.662 358.216C422.792 357.086 427.312 359.346 427.312 359.346Z" fill="#2F2E41"/>
<path d="M406.024 112.821L416.57 135.044L397.609 140.219L393.97 119.978L406.024 112.821Z" fill="#A0616A"/>
<path d="M395.1 125.251C403.213 125.251 409.79 118.674 409.79 110.561C409.79 102.448 403.213 95.8714 395.1 95.8714C386.987 95.8714 380.411 102.448 380.411 110.561C380.411 118.674 386.987 125.251 395.1 125.251Z" fill="#A0616A"/>
<path d="M404.717 116.864C403.383 116.784 402.081 117.235 400.756 117.411C396.017 118.04 391.087 114.601 390.04 109.937C389.956 109.315 389.771 108.712 389.492 108.151C388.763 106.96 387.102 106.733 385.732 107.007C384.363 107.281 383.065 107.921 381.671 107.995C379.517 108.108 377.45 106.782 376.303 104.957C375.155 103.131 374.83 100.885 374.985 98.7344L376.017 99.8177C376.437 98.9304 376.599 97.9431 376.485 96.9683C377.032 96.8226 377.607 96.8198 378.155 96.9601C378.704 97.1004 379.207 97.3792 379.617 97.7697C380.527 97.8665 379.84 96.0814 380.516 95.4645C380.799 95.2062 381.233 95.255 381.617 95.2587C383.553 95.2773 385.119 93.7963 386.645 92.6041C389.289 90.543 392.381 89.1328 395.67 88.4875C397.857 88.061 400.182 87.9925 402.255 88.8067C403.958 89.4753 405.383 90.6931 406.702 91.9612C409.948 95.0828 412.823 98.7505 414.174 103.047C415.272 106.566 415.303 110.331 414.263 113.868C413.719 115.705 412.079 121.995 409.678 122.142C406.661 122.326 408.472 117.088 404.717 116.864Z" fill="#2F2E41"/>
<path d="M386.249 347.67L385.495 360.1L381.352 364.62L372.689 358.216L378.339 345.41L386.249 347.67Z" fill="#A0616A"/>
<path d="M390.957 132.784C390.957 132.784 392.84 118.848 410.92 123.368C429 127.888 430.883 132.031 430.883 132.031C430.883 132.031 431.26 135.798 432.39 136.174C433.52 136.551 436.533 138.434 435.027 139.564C433.52 140.694 441.806 151.994 441.806 151.994C441.806 151.994 446.703 155.007 443.69 169.32C440.676 183.634 437.287 204.35 437.287 204.35C437.287 204.35 438.416 211.13 436.91 214.897C435.403 218.663 438.416 221.3 438.416 222.806C438.416 224.313 437.663 231.846 437.663 231.846C437.663 231.846 386.437 229.963 379.281 231.846C372.124 233.73 390.957 132.784 390.957 132.784Z" fill="#575A89"/>
<path d="M435.968 228.645C435.968 228.645 438.982 235.801 435.968 247.478C432.955 259.154 432.202 288.534 432.202 288.534C432.202 288.534 432.202 345.41 429.565 348.423C426.928 351.436 427.682 356.333 427.682 356.333H416.382C416.382 356.333 416.758 350.306 415.252 346.916C413.745 343.527 414.122 306.99 414.122 306.99L407.719 255.764L394.912 304.354C394.912 304.354 390.015 340.513 388.132 342.02C386.249 343.527 388.132 349.553 388.132 349.553C384.261 350.133 380.306 349.474 376.832 347.67V341.643C376.832 341.643 371.182 339.383 373.066 331.097C374.949 322.81 374.196 232.788 379.846 228.645C385.496 224.501 435.968 228.645 435.968 228.645Z" fill="#2F2E41"/>
<path d="M376.079 359.346C376.079 359.346 375.911 356.836 375.619 352.064C375.619 352.064 362.896 349.553 363.649 358.216C364.402 366.88 370.806 369.893 370.806 369.893C370.806 369.893 373.819 369.516 373.442 372.529C373.066 375.543 384.366 381.946 389.639 375.919L386.396 356.898C386.396 356.898 382.859 359.346 381.729 358.216C380.599 357.086 376.079 359.346 376.079 359.346Z" fill="#2F2E41"/>
<path d="M370.994 229.963L369.864 235.236C369.864 235.236 356.304 256.706 367.604 258.966C378.904 261.226 378.151 238.25 378.151 238.25L379.281 233.353L370.994 229.963Z" fill="#A0616A"/>
<path d="M384.366 135.986C384.366 135.986 392.275 130.713 396.042 137.116C399.809 143.519 403.575 158.209 403.575 158.209L398.679 193.992L380.599 235.425L369.676 231.281C369.676 231.281 371.559 226.008 370.806 223.748C370.052 221.488 373.819 215.838 373.819 215.838L377.586 186.459C377.586 186.459 379.092 136.363 384.366 135.986Z" fill="#575A89"/>
<path opacity="0.1" d="M398.49 193.05L386.061 237.873L380.411 235.613L398.49 193.05Z" fill="black"/>
<path opacity="0.1" d="M427.693 146.229C430.758 146.243 433.812 145.875 436.785 145.134L436.601 144.404C429.566 146.184 421.611 145.746 412.958 143.1C405.259 140.747 397.985 136.977 390.952 133.331L390.605 134C397.669 137.661 404.973 141.447 412.738 143.821C417.576 145.36 422.616 146.171 427.693 146.229V146.229Z" fill="black"/>
<path d="M307.493 236.267H235.916V313.192H307.493V236.267Z" fill="#6C63FF"/>
<path d="M222.883 112.676C218.06 101.297 205.784 99.1483 205.784 99.1483C205.784 99.1483 193.963 95.9949 184.092 111.013C174.891 125.011 163.025 138.126 178.073 143.713L182.048 135.365L182.525 144.972C184.713 145.428 186.924 145.763 189.149 145.977C205.84 147.673 221.573 150.492 221.865 144.46C222.252 136.442 227.523 123.625 222.883 112.676Z" fill="#2F2E41"/>
<path d="M171.961 203.802L170.887 231.189C170.887 231.189 159.61 253.206 168.739 252.669C177.868 252.132 176.794 231.189 176.794 231.189L180.016 205.413L171.961 203.802Z" fill="#FFB8B8"/>
<path d="M233.716 198.969L236.938 226.356C236.938 226.356 246.604 240.855 239.086 245.688C231.568 250.521 231.568 228.504 231.568 228.504L223.513 200.58L233.716 198.969Z" fill="#FFB8B8"/>
<path d="M222.439 249.984L212.773 287.574C212.773 287.574 208.477 302.61 202.57 310.128L200.422 314.424L191.83 313.35L197.737 289.185L201.496 244.614L222.439 249.984Z" fill="#FFB8B8"/>
<path opacity="0.1" d="M222.439 249.984L212.773 287.574C212.773 287.574 208.477 302.61 202.57 310.128L200.422 314.424L191.83 313.35L197.737 289.185L201.496 244.614L222.439 249.984Z" fill="black"/>
<path d="M189.704 307.355L204.39 310.755L198.337 325.023C198.337 325.023 200.797 333.565 198.454 338.088C196.111 342.612 196.449 350.819 196.449 350.819L193.266 350.318C193.266 350.318 185.539 364.866 176.408 360.71C167.278 356.553 176.989 346.667 176.989 346.667C176.989 346.667 184.884 331.058 185.886 324.693C186.889 318.327 189.704 307.355 189.704 307.355Z" fill="#2F2E41"/>
<path opacity="0.1" d="M189.704 307.355L204.39 310.755L198.337 325.023C198.337 325.023 200.797 333.565 198.454 338.088C196.111 342.612 196.449 350.819 196.449 350.819L193.266 350.318C193.266 350.318 185.539 364.866 176.408 360.71C167.278 356.553 176.989 346.667 176.989 346.667C176.989 346.667 184.884 331.058 185.886 324.693C186.889 318.327 189.704 307.355 189.704 307.355Z" fill="black"/>
<path d="M177.331 241.929L185.386 282.204C185.386 282.204 182.701 302.073 185.923 314.424L189.145 326.238H199.885V282.741C199.885 282.741 200.422 247.299 198.811 244.614C197.2 241.929 177.331 241.929 177.331 241.929Z" fill="#FFB8B8"/>
<path d="M202.033 321.942L186.997 323.016L190.756 338.052C190.756 338.052 186.997 346.107 188.608 350.94C190.219 355.773 188.608 363.828 188.608 363.828H191.83C191.83 363.828 197.2 379.401 206.866 376.716C216.532 374.031 208.477 362.754 208.477 362.754C208.477 362.754 203.107 346.107 203.107 339.663C203.107 333.219 202.033 321.942 202.033 321.942Z" fill="#2F2E41"/>
<path d="M205.792 136.14C213.799 136.14 220.291 129.649 220.291 121.642C220.291 113.634 213.799 107.143 205.792 107.143C197.784 107.143 191.293 113.634 191.293 121.642C191.293 129.649 197.784 136.14 205.792 136.14Z" fill="#FFB8B8"/>
<path d="M195.857 127.28C195.857 127.28 196.931 145.538 193.709 146.612C190.487 147.686 210.356 146.612 210.356 146.612C210.356 146.612 207.671 135.335 210.356 132.113C213.041 128.891 195.857 127.28 195.857 127.28Z" fill="#FFB8B8"/>
<path d="M210.625 143.658C210.625 143.658 196.663 142.584 193.978 143.658C191.293 144.732 183.775 150.102 183.775 150.102L187.534 183.933L218.143 190.377L222.976 183.396L227.809 173.193L225.661 160.305L225.124 152.787L210.625 143.658Z" fill="#D0CDE1"/>
<path d="M181.09 152.25C181.09 152.25 174.109 153.861 173.572 159.231C173.035 164.601 173.035 178.026 173.572 180.174C174.109 182.322 173.572 183.396 173.035 183.933C172.498 184.47 171.424 183.396 172.498 185.007C173.572 186.618 173.572 186.618 173.035 188.229C172.498 189.84 170.887 187.692 171.961 190.377C173.035 193.062 173.572 193.599 173.035 194.136C172.498 194.673 170.887 207.024 170.887 207.024L180.016 208.635L189.145 176.952L181.09 152.25Z" fill="#D0CDE1"/>
<path d="M222.976 152.25C223.996 152.307 224.982 152.636 225.831 153.203C226.681 153.769 227.364 154.553 227.809 155.472C229.42 158.694 233.716 179.637 233.179 181.248C232.642 182.859 231.568 180.711 232.642 183.933C233.716 187.155 232.642 186.618 233.179 188.766C233.716 190.914 231.031 188.766 233.179 190.914C235.327 193.062 236.401 193.599 235.327 194.673C234.253 195.747 232.642 193.599 234.253 195.747C235.864 197.895 235.864 201.117 235.864 201.117L222.976 203.802L219.217 173.73L222.976 152.25Z" fill="#D0CDE1"/>
<path d="M179.409 151.397L182.047 150.077C182.314 149.944 182.604 149.865 182.902 149.844C183.199 149.824 183.498 149.863 183.78 149.958C184.063 150.054 184.324 150.204 184.548 150.401C184.772 150.598 184.955 150.837 185.086 151.105L197.2 175.878L210.625 184.47L220.291 180.174C220.291 180.174 227.272 169.434 225.124 164.064C223.667 160.423 221.961 154.822 221.014 151.592C220.958 151.401 220.962 151.199 221.026 151.011C221.09 150.824 221.21 150.66 221.369 150.543C221.529 150.426 221.721 150.361 221.919 150.357C222.117 150.353 222.312 150.41 222.476 150.52L224.307 151.74C224.892 152.131 225.301 152.736 225.443 153.426L229.42 172.656L224.05 183.933V194.673L227.809 252.669C227.809 252.669 213.847 250.521 199.885 247.836C185.923 245.151 168.202 243.003 168.202 243.003C168.202 243.003 177.331 195.747 184.849 187.692C184.849 187.692 184.849 181.785 185.923 181.248C186.997 180.711 188.071 176.952 188.071 176.952L178.344 154.308C178.117 153.778 178.1 153.182 178.298 152.64C178.496 152.099 178.893 151.654 179.409 151.397V151.397Z" fill="#2F2E41"/>
<path d="M220.156 108.542L207.853 102.098L190.863 104.734L187.348 120.259L196.098 119.923L198.542 114.219V119.829L202.58 119.674L204.924 110.593L206.388 120.259L220.742 119.967L220.156 108.542Z" fill="#2F2E41"/>
<path d="M191.024 124.461C191.914 124.461 192.635 123.199 192.635 121.641C192.635 120.084 191.914 118.822 191.024 118.822C190.135 118.822 189.413 120.084 189.413 121.641C189.413 123.199 190.135 124.461 191.024 124.461Z" fill="#FFB8B8"/>
<path d="M331.764 209.715H320.059V198.011H319.609V209.715H307.905V210.166H319.609V221.87H320.059V210.166H331.764V209.715Z" fill="#2F2E41"/>
<path d="M295.403 259.293H247.905V260.22H295.403V259.293Z" fill="#F2F2F2"/>
<path d="M295.403 271.919H247.905V272.846H295.403V271.919Z" fill="#F2F2F2"/>
<path d="M295.403 284.545H247.905V285.472H295.403V284.545Z" fill="#F2F2F2"/>
</g>
<defs>
<linearGradient id="paint0_linear" x1="272.807" y1="165.743" x2="330.606" y2="317.174" gradientUnits="userSpaceOnUse">
<stop stop-color="#E7816B" stop-opacity="0.92"/>
<stop offset="0.244792" stop-color="#ED6465" stop-opacity="0.71902"/>
<stop offset="0.932292" stop-color="#F5395B" stop-opacity="0.42"/>
</linearGradient>
<clipPath id="clip0">
<rect width="318.67" height="348.414" fill="white" transform="translate(126 30)"/>
</clipPath>
</defs>
</svg>
