<?xml version="1.0" standalone="no"?><svg xmlns:xlink="http://www.w3.org/1999/xlink" xmlns="http://www.w3.org/2000/svg" viewBox="0 0 1000 600" preserveAspectRatio="xMaxYMax slice"><g transform="scale(1.1904761904761905)"><rect x="0" y="0" width="840" height="504" fill="#ffffff"/><rect x="0" y="0" width="84" height="84" fill="#ffffff"/><rect x="0" y="0" width="42" height="42" fill="#949bfb"/><path d="M 0 42 A 42 42 0 0 1 42 0 L 42 10.5 A 31.5 31.5 0 0 0 10.5 42" fill="#fff6e2"/><rect x="42" y="0" width="42" height="42" fill="#7880f9"/><path d="M 42 0 A 42 42 0 0 1 84 42 L 73.5 42 A 31.5 31.5 0 0 0 42 10.5" fill="#ffe3a2"/><rect x="0" y="42" width="42" height="42" fill="#ffd982"/><path d="M 0 42 A 42 42 0 0 0 42 84 L 42 73.5 A 31.5 31.5 0 0 1 10.5 42" fill="#ced1fd"/><rect x="42" y="42" width="42" height="42" fill="#ffd574"/><path d="M 42 84 A 42 42 0 0 0 84 42 L 73.5 42 A 31.5 31.5 0 0 1 42 73.5" fill="#5d68f8"/><rect x="84" y="0" width="84" height="84" fill="#ffffff"/><rect x="84" y="0" width="42" height="42" fill="#d7dafd"/><circle cx="105" cy="21" r="21" fill="#f3f3fe"/><rect x="126" y="0" width="42" height="42" fill="#a0a6fb"/><rect x="126" y="0" width="42" height="42" fill="#8d95fa"/><rect x="84" y="42" width="42" height="42" fill="#fff4da"/><circle cx="105" cy="63" r="21" fill="#ffe19c"/><rect x="126" y="42" width="42" height="42" fill="#ffe6ad"/><rect x="126" y="42" width="42" height="42" fill="#ffe3a3"/><rect x="168" y="0" width="84" height="84" fill="#ffffff"/><rect x="168" y="0" width="42" height="42" fill="#8088fa"/><path d="M 168 0 A 42 42 0 0 1 210 42 L 168 42" fill="#fffffd"/><rect x="210" y="0" width="42" height="42" fill="#7a83f9"/><path d="M 210 42 A 42 42 0 0 1  252 0 L 252 42" fill="#a0a6fb"/><rect x="168" y="42" width="42" height="42" fill="#ffd471"/><path d="M 168 84 A 42 42 0 0 0 210 42 L 168 42" fill="#ffcc56"/><rect x="210" y="42" width="42" height="42" fill="#979dfb"/><path d="M 210 42 A 42 42 0 0 0 252 84 L 252 42" fill="#7c84fa"/><rect x="252" y="0" width="84" height="84" fill="#fff2d4"/><path d="M 252 84 A 84 84 0 0 0 336 0 L 252 0" fill="#b8bdfc"/><rect x="336" y="0" width="84" height="84" fill="#ffffff"/><rect x="336" y="0" width="42" height="42" fill="#cbcffd"/><polygon points="336,0 378,0 336,42" fill="#b6bafc"/><rect x="378" y="0" width="42" height="42" fill="#ffd166"/><polygon points="420,0 420,42 378,42" fill="#fff9ec"/><rect x="336" y="42" width="42" height="42" fill="#fff4dc"/><polygon points="336,42 378,42 378,84" fill="#fff9eb"/><rect x="378" y="42" width="42" height="42" fill="#ffecc1"/><polygon points="378,42 420,84 378,84" fill="#ffd677"/><rect x="420" y="0" width="84" height="84" fill="#dfe1fe"/><polygon points="420,0 504,0 504,84" fill="#ffce5b"/><rect x="504" y="0" width="84" height="84" fill="#f3f4ff"/><path d="M 504 0 A 84 84 0 0 1  588 84 L 504 0 A 84 84 0 0 0 588 84" fill="#c8cbfd"/><rect x="588" y="0" width="84" height="84" fill="#ffeab8"/><rect x="588" y="0" width="84" height="84" fill="#ffd678"/><rect x="672" y="0" width="84" height="84" fill="#ffffff"/><rect x="672" y="0" width="42" height="42" fill="#fffefa"/><circle cx="693" cy="21" r="21" fill="#6f78f9"/><rect x="714" y="0" width="42" height="42" fill="#8b93fa"/><rect x="714" y="0" width="42" height="42" fill="#b6bbfc"/><rect x="672" y="42" width="42" height="42" fill="#fff0cc"/><circle cx="693" cy="63" r="21" fill="#eff0fe"/><rect x="714" y="42" width="42" height="42" fill="#636df9"/><rect x="714" y="42" width="42" height="42" fill="#fff3d6"/><rect x="756" y="0" width="84" height="84" fill="#ffffff"/><rect x="756" y="0" width="42" height="42" fill="#dddffe"/><path d="M 756 42 A 42 42 0 0 1  798 0 L 798 42" fill="#ffe29f"/><rect x="798" y="0" width="42" height="42" fill="#ffeaba"/><path d="M 798 0 A 42 42 0 0 1 840 42 L 798 42" fill="#babefc"/><rect x="756" y="42" width="42" height="42" fill="#b5bafc"/><path d="M 756 42 A 42 42 0 0 0 798 84 L 798 42" fill="#fffaef"/><rect x="798" y="42" width="42" height="42" fill="#ffe29e"/><path d="M 798 84 A 42 42 0 0 0 840 42 L 798 42" fill="#ffdf96"/><rect x="0" y="84" width="84" height="84" fill="#ffd77b"/><rect x="0" y="84" width="84" height="84" fill="#ffd87e"/><rect x="84" y="84" width="84" height="84" fill="#ffffff"/><rect x="84" y="84" width="42" height="42" fill="#a7adfb"/><path d="M 84 126 A 42 42 0 0 0 126 84 L 84 84" fill="#fff9ea"/><rect x="126" y="84" width="42" height="42" fill="#9ba2fb"/><path d="M 126 84 A 42 42 0 0 0 168 126 L 168 84" fill="#8890fa"/><rect x="84" y="126" width="42" height="42" fill="#a6abfb"/><path d="M 84 126 A 42 42 0 0 1 126 168 L 84 168" fill="#dbddfe"/><rect x="126" y="126" width="42" height="42" fill="#f3f4ff"/><path d="M 126 168 A 42 42 0 0 1  168 126 L 168 168" fill="#a3a9fb"/><rect x="168" y="84" width="84" height="84" fill="#ffe19a"/><rect x="168" y="84" width="84" height="84" fill="#a8adfb"/><rect x="252" y="84" width="84" height="84" fill="#ffffff"/><rect x="252" y="84" width="42" height="42" fill="#ffe098"/><polygon points="252,84 294,84 252,126" fill="#ffdd8e"/><rect x="294" y="84" width="42" height="42" fill="#b3b8fc"/><polygon points="294,84 336,84 336,126" fill="#ffe29e"/><rect x="252" y="126" width="42" height="42" fill="#fff4dc"/><polygon points="294,126 294,168 252,168" fill="#c3c7fd"/><rect x="294" y="126" width="42" height="42" fill="#bdc1fc"/><polygon points="294,126 336,168 294,168" fill="#fff7e4"/><rect x="336" y="84" width="84" height="84" fill="#ffffff"/><rect x="336" y="84" width="42" height="42" fill="#ffdb86"/><path d="M 336 126 A 42 42 0 0 1  378 84 L 378 126" fill="#ffd26b"/><rect x="378" y="84" width="42" height="42" fill="#ffd36e"/><path d="M 378 84 A 42 42 0 0 1 420 126 L 378 126" fill="#7a83f9"/><rect x="336" y="126" width="42" height="42" fill="#a1a7fb"/><path d="M 336 126 A 42 42 0 0 0 378 168 L 378 126" fill="#5f69f8"/><rect x="378" y="126" width="42" height="42" fill="#ffe9b7"/><path d="M 378 168 A 42 42 0 0 0 420 126 L 378 126" fill="#fbfbff"/><rect x="420" y="84" width="84" height="84" fill="#ffffff"/><rect x="420" y="84" width="42" height="42" fill="#6771f9"/><path d="M 420 84 A 42 42 0 0 1 462 126 L 420 126" fill="#fffaef"/><rect x="462" y="84" width="42" height="42" fill="#5c67f8"/><path d="M 462 126 A 42 42 0 0 1  504 84 L 504 126" fill="#ffd063"/><rect x="420" y="126" width="42" height="42" fill="#a5abfb"/><path d="M 420 168 A 42 42 0 0 0 462 126 L 420 126" fill="#a9affb"/><rect x="462" y="126" width="42" height="42" fill="#ffe3a1"/><path d="M 462 126 A 42 42 0 0 0 504 168 L 504 126" fill="#ffca51"/><rect x="504" y="84" width="84" height="84" fill="#ffecbf"/><path d="M 504 84 A 84 84 0 0 0 588 168 L 588 84" fill="#fff6e0"/><rect x="588" y="84" width="84" height="84" fill="#ffffff"/><rect x="588" y="84" width="42" height="42" fill="#fafbff"/><circle cx="609" cy="105" r="21" fill="#fff0ce"/><rect x="630" y="84" width="42" height="42" fill="#959cfb"/><rect x="630" y="84" width="42" height="42" fill="#fafaff"/><rect x="588" y="126" width="42" height="42" fill="#f4f4ff"/><circle cx="609" cy="147" r="21" fill="#d8dafd"/><rect x="630" y="126" width="42" height="42" fill="#ffdc8c"/><rect x="630" y="126" width="42" height="42" fill="#eeeffe"/><rect x="672" y="84" width="84" height="84" fill="#fefeff"/><path d="M 672 84 A 84 84 0 0 1 756 168 L 672 168" fill="#636df9"/><rect x="756" y="84" width="84" height="84" fill="#ffcc56"/><rect x="756" y="84" width="84" height="84" fill="#d7d9fd"/><rect x="0" y="168" width="84" height="84" fill="#ffffff"/><rect x="0" y="168" width="42" height="42" fill="#fffcf5"/><path d="M 0 210 A 42 42 0 0 0 42 168 L 0 168" fill="#dcdefe"/><rect x="42" y="168" width="42" height="42" fill="#e5e7fe"/><path d="M 42 168 A 42 42 0 0 0 84 210 L 84 168" fill="#ffe099"/><rect x="0" y="210" width="42" height="42" fill="#848cfa"/><path d="M 0 210 A 42 42 0 0 1 42 252 L 0 252" fill="#7d85fa"/><rect x="42" y="210" width="42" height="42" fill="#ffdb88"/><path d="M 42 252 A 42 42 0 0 1  84 210 L 84 252" fill="#ffffff"/><rect x="84" y="168" width="84" height="84" fill="#ffffff"/><rect x="84" y="168" width="42" height="42" fill="#ffeec8"/><circle cx="105" cy="189" r="21" fill="#babffc"/><rect x="126" y="168" width="42" height="42" fill="#eaebfe"/><rect x="126" y="168" width="42" height="42" fill="#ffebbd"/><rect x="84" y="210" width="42" height="42" fill="#ffd268"/><circle cx="105" cy="231" r="21" fill="#7780f9"/><rect x="126" y="210" width="42" height="42" fill="#e4e6fe"/><rect x="126" y="210" width="42" height="42" fill="#636df9"/><rect x="168" y="168" width="84" height="84" fill="#5d68f8"/><path d="M 168 168 A 84 84 0 0 1  252 252 L 168 168 A 84 84 0 0 0 252 252" fill="#9da3fb"/><rect x="252" y="168" width="84" height="84" fill="#ffdc8b"/><polygon points="252,168 336,168 336,252" fill="#fffaee"/><rect x="336" y="168" width="84" height="84" fill="#ffffff"/><rect x="336" y="168" width="42" height="42" fill="#8991fa"/><path d="M 336 210 A 42 42 0 0 0 378 168 L 336 168" fill="#bdc1fc"/><rect x="378" y="168" width="42" height="42" fill="#d7d9fd"/><path d="M 378 168 A 42 42 0 0 0 420 210 L 420 168" fill="#ffd678"/><rect x="336" y="210" width="42" height="42" fill="#ffcf5e"/><path d="M 336 210 A 42 42 0 0 1 378 252 L 336 252" fill="#e6e8fe"/><rect x="378" y="210" width="42" height="42" fill="#fff9ea"/><path d="M 378 252 A 42 42 0 0 1  420 210 L 420 252" fill="#ffdc8b"/><rect x="420" y="168" width="84" height="84" fill="#ffffff"/><rect x="420" y="168" width="42" height="42" fill="#fffaf0"/><path d="M 420 210 A 42 42 0 0 0 462 168 L 420 168" fill="#ebedfe"/><rect x="462" y="168" width="42" height="42" fill="#ffdc8a"/><path d="M 462 168 A 42 42 0 0 0 504 210 L 504 168" fill="#aeb3fc"/><rect x="420" y="210" width="42" height="42" fill="#a2a8fb"/><path d="M 420 210 A 42 42 0 0 1 462 252 L 420 252" fill="#b9befc"/><rect x="462" y="210" width="42" height="42" fill="#fff9ea"/><path d="M 462 252 A 42 42 0 0 1  504 210 L 504 252" fill="#fefeff"/><rect x="504" y="168" width="84" height="84" fill="#ffecbf"/><rect x="504" y="168" width="84" height="84" fill="#ffde93"/><rect x="588" y="168" width="84" height="84" fill="#ffffff"/><rect x="588" y="168" width="42" height="42" fill="#ffde91"/><path d="M 588 168 A 42 42 0 0 0 630 210 L 630 168" fill="#fff8e9"/><rect x="630" y="168" width="42" height="42" fill="#ffedc5"/><path d="M 630 210 A 42 42 0 0 0 672 168 L 630 168" fill="#dadcfd"/><rect x="588" y="210" width="42" height="42" fill="#636df9"/><path d="M 588 252 A 42 42 0 0 1  630 210 L 630 252" fill="#a7adfb"/><rect x="630" y="210" width="42" height="42" fill="#c5c9fd"/><path d="M 630 210 A 42 42 0 0 1 672 252 L 630 252" fill="#6c76f9"/><rect x="672" y="168" width="84" height="84" fill="#ffffff"/><rect x="672" y="168" width="42" height="42" fill="#6872f9"/><path d="M 672 210 A 42 42 0 0 1  714 168 L 714 210" fill="#ffcf5f"/><rect x="714" y="168" width="42" height="42" fill="#fff9eb"/><path d="M 714 168 A 42 42 0 0 1 756 210 L 714 210" fill="#f9faff"/><rect x="672" y="210" width="42" height="42" fill="#d5d8fd"/><path d="M 672 210 A 42 42 0 0 0 714 252 L 714 210" fill="#ffe29d"/><rect x="714" y="210" width="42" height="42" fill="#747df9"/><path d="M 714 252 A 42 42 0 0 0 756 210 L 714 210" fill="#ffe7b0"/><rect x="756" y="168" width="84" height="84" fill="#ffffff"/><rect x="756" y="168" width="42" height="42" fill="#5762f8"/><path d="M 756 168 A 42 42 0 0 0 798 210 L 798 168" fill="#ffda85"/><rect x="798" y="168" width="42" height="42" fill="#ffcd5a"/><path d="M 798 210 A 42 42 0 0 0 840 168 L 798 168" fill="#cccffd"/><rect x="756" y="210" width="42" height="42" fill="#7d86fa"/><path d="M 756 252 A 42 42 0 0 1  798 210 L 798 252" fill="#a5abfb"/><rect x="798" y="210" width="42" height="42" fill="#7b84fa"/><path d="M 798 210 A 42 42 0 0 1 840 252 L 798 252" fill="#ffda83"/><rect x="0" y="252" width="84" height="84" fill="#ffdf94"/><path d="M 0 252 A 84 84 0 0 1  84 336 L 0 252 A 84 84 0 0 0 84 336" fill="#5863f8"/><rect x="84" y="252" width="84" height="84" fill="#ffffff"/><rect x="84" y="252" width="42" height="42" fill="#7c85fa"/><path d="M 84 252 A 42 42 0 0 1 126 294 L 84 294" fill="#abb1fc"/><rect x="126" y="252" width="42" height="42" fill="#fff1d2"/><path d="M 126 294 A 42 42 0 0 1  168 252 L 168 294" fill="#ffcf60"/><rect x="84" y="294" width="42" height="42" fill="#ffd779"/><path d="M 84 336 A 42 42 0 0 0 126 294 L 84 294" fill="#fffdf7"/><rect x="126" y="294" width="42" height="42" fill="#727bf9"/><path d="M 126 294 A 42 42 0 0 0 168 336 L 168 294" fill="#ffebbe"/><rect x="168" y="252" width="84" height="84" fill="#b1b6fc"/><path d="M 168 336 A 84 84 0 0 1  252 252 L 168 336 A 84 84 0 0 0 252 252" fill="#f1f2fe"/><rect x="252" y="252" width="84" height="84" fill="#fff3d9"/><rect x="252" y="252" width="84" height="84" fill="#ffd982"/><rect x="336" y="252" width="84" height="84" fill="#ffda84"/><polygon points="336,252 420,336 336,336" fill="#ffd470"/><rect x="420" y="252" width="84" height="84" fill="#ffffff"/><rect x="420" y="252" width="42" height="42" fill="#ffd981"/><polygon points="420,252 462,252 420,294" fill="#ffd064"/><rect x="462" y="252" width="42" height="42" fill="#b0b5fc"/><polygon points="504,252 504,294 462,294" fill="#babffc"/><rect x="420" y="294" width="42" height="42" fill="#ffca50"/><polygon points="420,294 462,294 462,336" fill="#f2f3fe"/><rect x="462" y="294" width="42" height="42" fill="#ffecc1"/><polygon points="462,294 504,336 462,336" fill="#fffdf8"/><rect x="504" y="252" width="84" height="84" fill="#727bf9"/><rect x="504" y="252" width="84" height="84" fill="#757ef9"/><rect x="588" y="252" width="84" height="84" fill="#ffd982"/><rect x="588" y="252" width="84" height="84" fill="#ffcd58"/><rect x="672" y="252" width="84" height="84" fill="#ffffff"/><rect x="672" y="252" width="42" height="42" fill="#fff2d3"/><circle cx="693" cy="273" r="21" fill="#ffd982"/><rect x="714" y="252" width="42" height="42" fill="#f5f6ff"/><rect x="714" y="252" width="42" height="42" fill="#747df9"/><rect x="672" y="294" width="42" height="42" fill="#fff1d2"/><circle cx="693" cy="315" r="21" fill="#ffd46f"/><rect x="714" y="294" width="42" height="42" fill="#c8cbfd"/><rect x="714" y="294" width="42" height="42" fill="#fff5dd"/><rect x="756" y="252" width="84" height="84" fill="#eaebfe"/><rect x="756" y="252" width="84" height="84" fill="#ffe4a7"/><rect x="0" y="336" width="84" height="84" fill="#ffe8b4"/><rect x="0" y="336" width="84" height="84" fill="#ffcb51"/><rect x="84" y="336" width="84" height="84" fill="#ffffff"/><rect x="84" y="336" width="42" height="42" fill="#f7f8ff"/><polygon points="84,336 126,336 84,378" fill="#ffd168"/><rect x="126" y="336" width="42" height="42" fill="#ffe7b0"/><polygon points="126,336 168,336 168,378" fill="#fff5dc"/><rect x="84" y="378" width="42" height="42" fill="#fffcf4"/><polygon points="84,378 126,420 84,420" fill="#f0f1fe"/><rect x="126" y="378" width="42" height="42" fill="#828bfa"/><polygon points="168,378 168,420 126,420" fill="#daddfd"/><rect x="168" y="336" width="84" height="84" fill="#a7adfb"/><polygon points="168,336 252,420 168,420" fill="#bec2fc"/><rect x="252" y="336" width="84" height="84" fill="#ffffff"/><rect x="252" y="336" width="42" height="42" fill="#e7e8fe"/><path d="M 252 336 A 42 42 0 0 0 294 378 L 294 336" fill="#bdc1fc"/><rect x="294" y="336" width="42" height="42" fill="#fff4dc"/><path d="M 294 378 A 42 42 0 0 0 336 336 L 294 336" fill="#ffecc0"/><rect x="252" y="378" width="42" height="42" fill="#ffda84"/><path d="M 252 420 A 42 42 0 0 1  294 378 L 294 420" fill="#ffd36c"/><rect x="294" y="378" width="42" height="42" fill="#ffcf60"/><path d="M 294 378 A 42 42 0 0 1 336 420 L 294 420" fill="#eeeffe"/><rect x="336" y="336" width="84" height="84" fill="#fff9eb"/><path d="M 336 420 A 84 84 0 0 1  420 336 L 420 420" fill="#ffeec6"/><rect x="420" y="336" width="84" height="84" fill="#f0f1fe"/><path d="M 420 420 A 84 84 0 0 1  504 336 L 504 420" fill="#dfe1fe"/><rect x="504" y="336" width="84" height="84" fill="#ffffff"/><rect x="504" y="336" width="42" height="42" fill="#ffdc8c"/><path d="M 504 336 A 42 42 0 0 0 546 378 L 546 336" fill="#fffffe"/><rect x="546" y="336" width="42" height="42" fill="#7f87fa"/><path d="M 546 378 A 42 42 0 0 0 588 336 L 546 336" fill="#868efa"/><rect x="504" y="378" width="42" height="42" fill="#fff8e9"/><path d="M 504 420 A 42 42 0 0 1  546 378 L 546 420" fill="#ffe5aa"/><rect x="546" y="378" width="42" height="42" fill="#fefeff"/><path d="M 546 378 A 42 42 0 0 1 588 420 L 546 420" fill="#ffe2a0"/><rect x="588" y="336" width="84" height="84" fill="#fff1d2"/><rect x="588" y="336" width="84" height="84" fill="#fffbf0"/><rect x="672" y="336" width="84" height="84" fill="#ffffff"/><rect x="672" y="336" width="42" height="42" fill="#fffdf8"/><path d="M 672 336 A 42 42 0 0 0 714 378 L 714 336" fill="#aeb4fc"/><rect x="714" y="336" width="42" height="42" fill="#cbcefd"/><path d="M 714 378 A 42 42 0 0 0 756 336 L 714 336" fill="#bfc3fc"/><rect x="672" y="378" width="42" height="42" fill="#c1c5fc"/><path d="M 672 420 A 42 42 0 0 1  714 378 L 714 420" fill="#9ca2fb"/><rect x="714" y="378" width="42" height="42" fill="#bcc0fc"/><path d="M 714 378 A 42 42 0 0 1 756 420 L 714 420" fill="#ffe8b2"/><rect x="756" y="336" width="84" height="84" fill="#ffffff"/><rect x="756" y="336" width="42" height="42" fill="#ffe3a2"/><path d="M 756 336 A 42 42 0 0 1 798 378 L 756 378" fill="#fff0ce"/><rect x="798" y="336" width="42" height="42" fill="#f8f8ff"/><path d="M 798 378 A 42 42 0 0 1  840 336 L 840 378" fill="#fafaff"/><rect x="756" y="378" width="42" height="42" fill="#fffefb"/><path d="M 756 420 A 42 42 0 0 0 798 378 L 756 378" fill="#ffd471"/><rect x="798" y="378" width="42" height="42" fill="#d6d8fd"/><path d="M 798 378 A 42 42 0 0 0 840 420 L 840 378" fill="#ffcb53"/><rect x="0" y="420" width="84" height="84" fill="#ffeabb"/><path d="M 0 420 A 84 84 0 0 1 84 504 L 0 504" fill="#828afa"/><rect x="84" y="420" width="84" height="84" fill="#ffffff"/><rect x="84" y="420" width="42" height="42" fill="#e9eafe"/><circle cx="105" cy="441" r="21" fill="#ffebbe"/><rect x="126" y="420" width="42" height="42" fill="#ffffff"/><rect x="126" y="420" width="42" height="42" fill="#fff3d7"/><rect x="84" y="462" width="42" height="42" fill="#ffce5d"/><circle cx="105" cy="483" r="21" fill="#d5d8fd"/><rect x="126" y="462" width="42" height="42" fill="#c3c7fd"/><rect x="126" y="462" width="42" height="42" fill="#707af9"/><rect x="168" y="420" width="84" height="84" fill="#ffffff"/><rect x="168" y="420" width="42" height="42" fill="#ffe9b7"/><path d="M 168 462 A 42 42 0 0 0 210 420 L 168 420" fill="#fffcf6"/><rect x="210" y="420" width="42" height="42" fill="#ffdc8b"/><path d="M 210 420 A 42 42 0 0 0 252 462 L 252 420" fill="#fffaee"/><rect x="168" y="462" width="42" height="42" fill="#fbfcff"/><path d="M 168 462 A 42 42 0 0 1 210 504 L 168 504" fill="#ffcf5f"/><rect x="210" y="462" width="42" height="42" fill="#fffdf8"/><path d="M 210 504 A 42 42 0 0 1  252 462 L 252 504" fill="#ffce5b"/><rect x="252" y="420" width="84" height="84" fill="#7f87fa"/><path d="M 252 420 A 84 84 0 0 0 336 504 L 336 420" fill="#a5abfb"/><rect x="336" y="420" width="84" height="84" fill="#ffffff"/><rect x="336" y="420" width="42" height="42" fill="#ffd676"/><polygon points="336,420 378,420 336,462" fill="#ffeec5"/><rect x="378" y="420" width="42" height="42" fill="#fff5df"/><polygon points="378,420 420,420 420,462" fill="#ffd572"/><rect x="336" y="462" width="42" height="42" fill="#c8ccfd"/><polygon points="336,462 378,504 336,504" fill="#8a92fa"/><rect x="378" y="462" width="42" height="42" fill="#fff0cd"/><polygon points="420,462 420,504 378,504" fill="#b7bcfc"/><rect x="420" y="420" width="84" height="84" fill="#ffffff"/><rect x="420" y="420" width="42" height="42" fill="#ffca50"/><path d="M 420 462 A 42 42 0 0 1  462 420 L 462 462" fill="#ffd167"/><rect x="462" y="420" width="42" height="42" fill="#adb2fc"/><path d="M 462 420 A 42 42 0 0 1 504 462 L 462 462" fill="#ffeab8"/><rect x="420" y="462" width="42" height="42" fill="#9299fa"/><path d="M 420 462 A 42 42 0 0 0 462 504 L 462 462" fill="#ffdf96"/><rect x="462" y="462" width="42" height="42" fill="#7d86fa"/><path d="M 462 504 A 42 42 0 0 0 504 462 L 462 462" fill="#ffd269"/><rect x="504" y="420" width="84" height="84" fill="#ffffff"/><rect x="504" y="420" width="42" height="42" fill="#ffdc8a"/><circle cx="525" cy="441" r="21" fill="#ffe9b7"/><rect x="546" y="420" width="42" height="42" fill="#fff1d1"/><rect x="546" y="420" width="42" height="42" fill="#f3f4ff"/><rect x="504" y="462" width="42" height="42" fill="#f7f8ff"/><circle cx="525" cy="483" r="21" fill="#5f69f8"/><rect x="546" y="462" width="42" height="42" fill="#ffcf5e"/><rect x="546" y="462" width="42" height="42" fill="#ffe6ad"/><rect x="588" y="420" width="84" height="84" fill="#ffdd8f"/><path d="M 588 420 A 84 84 0 0 1  672 504 L 588 420 A 84 84 0 0 0 672 504" fill="#fff4d9"/><rect x="672" y="420" width="84" height="84" fill="#ffffff"/><rect x="672" y="420" width="42" height="42" fill="#bec2fc"/><polygon points="672,420 714,420 672,462" fill="#ffdc8a"/><rect x="714" y="420" width="42" height="42" fill="#ffd062"/><polygon points="714,420 756,420 756,462" fill="#8a91fa"/><rect x="672" y="462" width="42" height="42" fill="#bcc1fc"/><polygon points="672,462 714,504 672,504" fill="#ffce5b"/><rect x="714" y="462" width="42" height="42" fill="#ffe5a7"/><polygon points="756,462 756,504 714,504" fill="#ced1fd"/><rect x="756" y="420" width="84" height="84" fill="#ffffff"/><rect x="756" y="420" width="42" height="42" fill="#ffd167"/><polygon points="756,420 798,420 756,462" fill="#5964f8"/><rect x="798" y="420" width="42" height="42" fill="#ffd166"/><polygon points="798,420 840,420 840,462" fill="#fffcf6"/><rect x="756" y="462" width="42" height="42" fill="#d6d9fd"/><polygon points="798,462 798,504 756,504" fill="#6b75f9"/><rect x="798" y="462" width="42" height="42" fill="#dddffe"/><polygon points="798,462 840,504 798,504" fill="#717bf9"/></g></svg>